<svg width="141" height="164" viewBox="0 0 141 164" fill="none" xmlns="http://www.w3.org/2000/svg">
<mask id="mask0_0_631" style="mask-type:alpha" maskUnits="userSpaceOnUse" x="24" y="48" width="116" height="69">
<path fill-rule="evenodd" clip-rule="evenodd" d="M24 48.7966H139.92V116.823H24V48.7966Z" fill="white"/>
</mask>
<g mask="url(#mask0_0_631)">
<path fill-rule="evenodd" clip-rule="evenodd" d="M71.2225 114.487C46.5542 114.487 26.3496 90.7063 26.3496 61.5108V51.1511H115.86V61.5108C115.86 90.7063 95.8909 114.487 71.2225 114.487Z" fill="#B98068"/>
<path fill-rule="evenodd" clip-rule="evenodd" d="M134.655 68.5742C131.836 78.463 121.029 84.1137 113.511 85.7619C116.565 78.2276 118.21 69.9869 118.21 61.7462V53.741H125.963C128.782 53.741 131.601 55.1537 133.246 57.5081C135.36 60.569 136.065 64.807 134.655 68.5742ZM113.511 61.5108C113.511 89.529 94.481 112.132 70.9873 112.132C47.4937 112.132 28.6987 89.529 28.6987 61.5108V53.5055H113.511V61.5108ZM125.963 48.7966H26.3494C24.9397 48.7966 24 49.7384 24 51.151V61.5108C24 92.119 45.1443 116.841 71.2223 116.841C88.1377 116.841 102.939 106.246 111.162 90.7063C119.619 89.9999 135.125 83.8783 139.119 69.7514C140.764 64.5716 139.824 58.9208 136.77 54.4473C134.185 50.9156 130.191 49.032 125.963 48.7966Z" fill="#2D140D"/>
</g>
<path fill-rule="evenodd" clip-rule="evenodd" d="M63.2346 43.6167C64.6442 43.6167 65.584 42.6749 65.584 41.2622V16.0693C65.584 14.6566 64.6442 13.7148 63.2346 13.7148C61.825 13.7148 60.8853 14.6566 60.8853 16.0693V41.2622C60.8853 42.4395 61.825 43.6167 63.2346 43.6167Z" fill="#2D140D"/>
<path fill-rule="evenodd" clip-rule="evenodd" d="M78.9753 43.6167C80.385 43.6167 81.3247 42.6749 81.3247 41.2622V2.41335C81.3247 1.00066 80.385 0.0588684 78.9753 0.0588684C77.5657 0.0588684 76.626 1.00066 76.626 2.41335V41.2622C76.626 42.4395 77.8007 43.6167 78.9753 43.6167Z" fill="#2D140D"/>
<path fill-rule="evenodd" clip-rule="evenodd" d="M10.0488 145.01C8.33984 145.01 7.01661 145.652 6.0791 146.936C5.1416 148.22 4.67285 150.01 4.67285 152.305C4.67285 157.08 6.46483 159.468 10.0488 159.468C11.5527 159.468 13.374 159.092 15.5127 158.34V162.148C13.7549 162.881 11.792 163.247 9.62402 163.247C6.50877 163.247 4.12598 162.302 2.47559 160.413C0.825187 158.523 0 155.811 0 152.275C0 150.049 0.405269 148.098 1.21582 146.423C2.02637 144.749 3.19091 143.464 4.70947 142.571C6.22803 141.677 8.0078 141.23 10.0488 141.23C12.1289 141.23 14.2187 141.733 16.3184 142.739L14.8535 146.431C14.0527 146.05 13.2471 145.718 12.4365 145.435C11.626 145.151 10.8301 145.01 10.0488 145.01ZM22.0347 154.736C22.0347 156.357 22.3008 157.583 22.833 158.413C23.3653 159.243 24.232 159.658 25.4331 159.658C26.6245 159.658 27.4815 159.246 28.0039 158.42C28.5264 157.595 28.7876 156.367 28.7876 154.736C28.7876 153.115 28.524 151.899 27.9966 151.089C27.4693 150.278 26.605 149.873 25.4038 149.873C24.2124 149.873 23.3531 150.276 22.8257 151.082C22.2984 151.887 22.0347 153.105 22.0347 154.736ZM33.3579 154.736C33.3579 157.402 32.6548 159.487 31.2486 160.991C29.8423 162.495 27.8843 163.247 25.3745 163.247C23.8023 163.247 22.4156 162.903 21.2144 162.214C20.0132 161.526 19.0904 160.537 18.4458 159.248C17.8013 157.959 17.479 156.455 17.479 154.736C17.479 152.061 18.1773 149.98 19.5738 148.496C20.9703 147.012 22.9331 146.27 25.4624 146.27C27.0347 146.27 28.4214 146.611 29.6226 147.295C30.8238 147.979 31.7466 148.96 32.3911 150.239C33.0357 151.519 33.3579 153.018 33.3579 154.736ZM44.8604 149.932H40.9932V162.954H36.5255V149.932H34.0645V147.778L36.5255 146.577V145.376C36.5255 143.511 36.9844 142.148 37.9024 141.289C38.8204 140.43 40.2901 140 42.3116 140C43.8546 140 45.2266 140.229 46.4278 140.688L45.2852 143.97C44.3868 143.687 43.5567 143.545 42.795 143.545C42.1602 143.545 41.7012 143.733 41.418 144.109C41.1348 144.485 40.9932 144.966 40.9932 145.552V146.577H44.8604V149.932ZM56.4766 149.932H52.6094V162.954H48.1417V149.932H45.6807V147.778L48.1417 146.577V145.376C48.1417 143.511 48.6006 142.148 49.5186 141.289C50.4366 140.43 51.9063 140 53.9278 140C55.4708 140 56.8428 140.229 58.044 140.688L56.9014 143.97C56.003 143.687 55.1729 143.545 54.4112 143.545C53.7764 143.545 53.3174 143.733 53.0342 144.109C52.751 144.485 52.6094 144.966 52.6094 145.552V146.577H56.4766V149.932ZM64.566 149.448C63.6187 149.448 62.8766 149.749 62.3395 150.349C61.8023 150.95 61.4947 151.802 61.4166 152.905H67.6861C67.6666 151.802 67.3785 150.95 66.8219 150.349C66.2652 149.749 65.5133 149.448 64.566 149.448ZM65.1959 163.247C62.5592 163.247 60.4986 162.52 59.0143 161.064C57.5299 159.609 56.7877 157.549 56.7877 154.883C56.7877 152.139 57.4737 150.017 58.8458 148.518C60.2179 147.019 62.1148 146.27 64.5367 146.27C66.8512 146.27 68.6529 146.929 69.942 148.247C71.2311 149.565 71.8756 151.387 71.8756 153.711V155.879H61.3141C61.3629 157.148 61.7389 158.14 62.442 158.853C63.1451 159.565 64.1314 159.922 65.401 159.922C66.3873 159.922 67.3199 159.819 68.1988 159.614C69.0777 159.409 69.9957 159.082 70.9527 158.633V162.09C70.1715 162.48 69.3365 162.771 68.4478 162.961C67.5592 163.152 66.4752 163.247 65.1959 163.247ZM81.049 149.448C80.1017 149.448 79.3595 149.749 78.8224 150.349C78.2853 150.95 77.9777 151.802 77.8995 152.905H84.1691C84.1495 151.802 83.8615 150.95 83.3048 150.349C82.7482 149.749 81.9962 149.448 81.049 149.448ZM81.6788 163.247C79.0421 163.247 76.9816 162.52 75.4972 161.064C74.0128 159.609 73.2706 157.549 73.2706 154.883C73.2706 152.139 73.9567 150.017 75.3287 148.518C76.7008 147.019 78.5978 146.27 81.0197 146.27C83.3341 146.27 85.1359 146.929 86.4249 148.247C87.714 149.565 88.3585 151.387 88.3585 153.711V155.879H77.797C77.8458 157.148 78.2218 158.14 78.9249 158.853C79.6281 159.565 80.6144 159.922 81.8839 159.922C82.8703 159.922 83.8029 159.819 84.6818 159.614C85.5607 159.409 86.4786 159.082 87.4357 158.633V162.09C86.6544 162.48 85.8195 162.771 84.9308 162.961C84.0421 163.152 82.9581 163.247 81.6788 163.247ZM99.363 162.954H94.8219V145.317H89.0065V141.538H105.178V145.317H99.363V162.954ZM119.567 162.954H107.233V141.538H119.567V145.259H111.774V149.961H119.025V153.682H111.774V159.204H119.567V162.954ZM140.019 162.954H134.863L129.253 153.931L127.334 155.308V162.954H122.793V141.538H127.334V151.338L129.121 148.818L134.922 141.538H139.961L132.49 151.016L140.019 162.954Z" fill="#2D140D"/>
<rect x="1" y="127" width="140" height="5" rx="2.5" fill="#2D140D"/>
</svg>
